<svg width="200" height="200" viewBox="0 0 200 200" fill="none" xmlns="http://www.w3.org/2000/svg">
<path d="M100.001 16.6666C78.6369 16.7275 58.1127 24.9909 42.667 39.75V25C42.667 22.7898 41.789 20.6702 40.2262 19.1074C38.6634 17.5446 36.5438 16.6666 34.3337 16.6666C32.1235 16.6666 30.0039 17.5446 28.4411 19.1074C26.8783 20.6702 26.0003 22.7898 26.0003 25V62.5C26.0003 64.7101 26.8783 66.8297 28.4411 68.3925C30.0039 69.9553 32.1235 70.8333 34.3337 70.8333H71.8337C74.0438 70.8333 76.1634 69.9553 77.7262 68.3925C79.289 66.8297 80.167 64.7101 80.167 62.5C80.167 60.2898 79.289 58.1702 77.7262 56.6074C76.1634 55.0446 74.0438 54.1666 71.8337 54.1666H51.8337C62.5485 42.9696 76.8296 35.8554 92.2215 34.0472C107.613 32.239 123.154 35.8498 136.172 44.2586C149.191 52.6675 158.872 65.3492 163.553 80.1232C168.234 94.8975 167.622 110.841 161.821 125.212C156.02 139.582 145.393 151.484 131.768 158.869C118.143 166.254 102.371 168.662 87.1632 165.677C71.9556 162.693 58.2626 154.504 48.4386 142.518C38.6147 130.532 33.2736 115.497 33.3337 100C33.3337 97.79 32.4557 95.67 30.8929 94.1075C29.3301 92.545 27.2105 91.6666 25.0003 91.6666C22.7902 91.6666 20.6706 92.545 19.1077 94.1075C17.545 95.67 16.667 97.79 16.667 100C16.667 116.482 21.5544 132.593 30.7112 146.297C39.868 160.002 52.8829 170.682 68.1101 176.99C83.3373 183.297 100.093 184.947 116.258 181.732C132.423 178.517 147.271 170.58 158.926 158.926C170.581 147.271 178.517 132.422 181.732 116.257C184.948 100.092 183.297 83.3366 176.991 68.1097C170.683 52.8825 160.002 39.8676 146.298 30.7108C132.594 21.554 116.482 16.6666 100.001 16.6666ZM100.001 66.6666C97.7898 66.6666 95.6707 67.5446 94.1082 69.1074C92.5448 70.6702 91.6673 72.7898 91.6673 75V100C91.6673 102.21 92.5448 104.33 94.1082 105.892C95.6707 107.455 97.7898 108.333 100.001 108.333H116.667C118.877 108.333 120.996 107.455 122.56 105.892C124.122 104.33 125.001 102.21 125.001 100C125.001 97.79 124.122 95.67 122.56 94.1075C120.996 92.545 118.877 91.6666 116.667 91.6666H108.334V75C108.334 72.7898 107.456 70.6702 105.893 69.1074C104.33 67.5446 102.211 66.6666 100.001 66.6666Z" fill="#6563FF"/>
</svg>
