<svg width="888" height="1024" viewBox="0 0 888 1024" fill="none" xmlns="http://www.w3.org/2000/svg">
<g clip-path="url(#clip0_38_3)">
<path d="M888 0H62V1024H888V0Z" fill="#C6E3EA"/>
<path d="M950 45H62V995H950V45Z" fill="#C6E3EA"/>
<g opacity="0.2">
<path opacity="0.2" d="M620.776 710.33V436.73V710.33Z" stroke="#153144" stroke-width="6" stroke-miterlimit="10" stroke-linecap="round" stroke-linejoin="round"/>
<path opacity="0.2" d="M482.315 348.43H375.915V710.285H482.315V348.43Z" stroke="#153144" stroke-width="6" stroke-miterlimit="10" stroke-linecap="round" stroke-linejoin="round"/>
<g opacity="0.2">
<g opacity="0.2">
<g opacity="0.2">
<path opacity="0.2" d="M394.345 631.435H463.695" stroke="#153144" stroke-width="6" stroke-miterlimit="10" stroke-linecap="round" stroke-linejoin="round"/>
<path opacity="0.2" d="M394.345 642.835H463.695" stroke="#153144" stroke-width="6" stroke-miterlimit="10" stroke-linecap="round" stroke-linejoin="round"/>
</g>
</g>
<g opacity="0.2">
<g opacity="0.2">
<path opacity="0.2" d="M394.345 599.135H463.695" stroke="#153144" stroke-width="6" stroke-miterlimit="10" stroke-linecap="round" stroke-linejoin="round"/>
<path opacity="0.2" d="M394.345 610.535H463.695" stroke="#153144" stroke-width="6" stroke-miterlimit="10" stroke-linecap="round" stroke-linejoin="round"/>
</g>
</g>
<g opacity="0.2">
<g opacity="0.2">
<path opacity="0.2" d="M394.345 566.835H463.695" stroke="#153144" stroke-width="6" stroke-miterlimit="10" stroke-linecap="round" stroke-linejoin="round"/>
<path opacity="0.2" d="M394.345 578.235H463.695" stroke="#153144" stroke-width="6" stroke-miterlimit="10" stroke-linecap="round" stroke-linejoin="round"/>
</g>
</g>
<g opacity="0.2">
<g opacity="0.2">
<path opacity="0.2" d="M394.345 534.535H463.695" stroke="#153144" stroke-width="6" stroke-miterlimit="10" stroke-linecap="round" stroke-linejoin="round"/>
<path opacity="0.2" d="M394.345 545.935H463.695" stroke="#153144" stroke-width="6" stroke-miterlimit="10" stroke-linecap="round" stroke-linejoin="round"/>
</g>
</g>
<g opacity="0.2">
<g opacity="0.2">
<path opacity="0.2" d="M394.345 502.235H463.695" stroke="#153144" stroke-width="6" stroke-miterlimit="10" stroke-linecap="round" stroke-linejoin="round"/>
<path opacity="0.2" d="M394.345 513.635H463.695" stroke="#153144" stroke-width="6" stroke-miterlimit="10" stroke-linecap="round" stroke-linejoin="round"/>
</g>
</g>
<g opacity="0.2">
<g opacity="0.2">
<path opacity="0.2" d="M394.345 469.935H463.695" stroke="#153144" stroke-width="6" stroke-miterlimit="10" stroke-linecap="round" stroke-linejoin="round"/>
<path opacity="0.2" d="M394.345 481.335H463.695" stroke="#153144" stroke-width="6" stroke-miterlimit="10" stroke-linecap="round" stroke-linejoin="round"/>
</g>
</g>
<g opacity="0.2">
<g opacity="0.2">
<path opacity="0.2" d="M394.345 437.635H463.695" stroke="#153144" stroke-width="6" stroke-miterlimit="10" stroke-linecap="round" stroke-linejoin="round"/>
<path opacity="0.2" d="M394.345 449.035H463.695" stroke="#153144" stroke-width="6" stroke-miterlimit="10" stroke-linecap="round" stroke-linejoin="round"/>
</g>
</g>
<g opacity="0.2">
<g opacity="0.2">
<path opacity="0.2" d="M394.345 405.335H463.695" stroke="#153144" stroke-width="6" stroke-miterlimit="10" stroke-linecap="round" stroke-linejoin="round"/>
<path opacity="0.2" d="M394.345 416.735H463.695" stroke="#153144" stroke-width="6" stroke-miterlimit="10" stroke-linecap="round" stroke-linejoin="round"/>
</g>
</g>
<g opacity="0.2">
<g opacity="0.2">
<path opacity="0.2" d="M394.345 373.035H463.695" stroke="#153144" stroke-width="6" stroke-miterlimit="10" stroke-linecap="round" stroke-linejoin="round"/>
<path opacity="0.2" d="M394.345 384.435H463.695" stroke="#153144" stroke-width="6" stroke-miterlimit="10" stroke-linecap="round" stroke-linejoin="round"/>
</g>
</g>
</g>
<path opacity="0.2" d="M464.265 348.43H393.965V307.58C393.965 288.2 409.735 272.43 429.115 272.43C448.495 272.43 464.265 288.2 464.265 307.58V348.43Z" stroke="#153144" stroke-width="6" stroke-miterlimit="10" stroke-linecap="round" stroke-linejoin="round"/>
<path opacity="0.2" d="M620.825 417.685H482.315V436.685H620.825V417.685Z" stroke="#153144" stroke-width="6" stroke-miterlimit="10" stroke-linecap="round" stroke-linejoin="round"/>
<g opacity="0.2">
<g opacity="0.2">
<g opacity="0.2">
<g opacity="0.2">
<path opacity="0.2" d="M599.545 657.085V671.335" stroke="#153144" stroke-width="6" stroke-miterlimit="10" stroke-linecap="round" stroke-linejoin="round"/>
</g>
<g opacity="0.2">
<path opacity="0.2" d="M580.545 657.085V671.335" stroke="#153144" stroke-width="6" stroke-miterlimit="10" stroke-linecap="round" stroke-linejoin="round"/>
</g>
<g opacity="0.2">
<path opacity="0.2" d="M561.545 657.085V671.335" stroke="#153144" stroke-width="6" stroke-miterlimit="10" stroke-linecap="round" stroke-linejoin="round"/>
</g>
<g opacity="0.2">
<path opacity="0.2" d="M542.545 657.085V671.335" stroke="#153144" stroke-width="6" stroke-miterlimit="10" stroke-linecap="round" stroke-linejoin="round"/>
</g>
<g opacity="0.2">
<path opacity="0.2" d="M523.545 657.085V671.335" stroke="#153144" stroke-width="6" stroke-miterlimit="10" stroke-linecap="round" stroke-linejoin="round"/>
</g>
<g opacity="0.2">
<path opacity="0.2" d="M504.545 657.085V671.335" stroke="#153144" stroke-width="6" stroke-miterlimit="10" stroke-linecap="round" stroke-linejoin="round"/>
</g>
</g>
</g>
<g opacity="0.2">
<g opacity="0.2">
<g opacity="0.2">
<path opacity="0.2" d="M599.545 619.085V633.335" stroke="#153144" stroke-width="6" stroke-miterlimit="10" stroke-linecap="round" stroke-linejoin="round"/>
</g>
<g opacity="0.2">
<path opacity="0.2" d="M580.545 619.085V633.335" stroke="#153144" stroke-width="6" stroke-miterlimit="10" stroke-linecap="round" stroke-linejoin="round"/>
</g>
<g opacity="0.2">
<path opacity="0.2" d="M561.545 619.085V633.335" stroke="#153144" stroke-width="6" stroke-miterlimit="10" stroke-linecap="round" stroke-linejoin="round"/>
</g>
<g opacity="0.2">
<path opacity="0.2" d="M542.545 619.085V633.335" stroke="#153144" stroke-width="6" stroke-miterlimit="10" stroke-linecap="round" stroke-linejoin="round"/>
</g>
<g opacity="0.2">
<path opacity="0.2" d="M523.545 619.085V633.335" stroke="#153144" stroke-width="6" stroke-miterlimit="10" stroke-linecap="round" stroke-linejoin="round"/>
</g>
<g opacity="0.2">
<path opacity="0.2" d="M504.545 619.085V633.335" stroke="#153144" stroke-width="6" stroke-miterlimit="10" stroke-linecap="round" stroke-linejoin="round"/>
</g>
</g>
</g>
<g opacity="0.2">
<g opacity="0.2">
<g opacity="0.2">
<path opacity="0.2" d="M599.545 581.085V595.335" stroke="#153144" stroke-width="6" stroke-miterlimit="10" stroke-linecap="round" stroke-linejoin="round"/>
</g>
<g opacity="0.2">
<path opacity="0.2" d="M580.545 581.085V595.335" stroke="#153144" stroke-width="6" stroke-miterlimit="10" stroke-linecap="round" stroke-linejoin="round"/>
</g>
<g opacity="0.2">
<path opacity="0.2" d="M561.545 581.085V595.335" stroke="#153144" stroke-width="6" stroke-miterlimit="10" stroke-linecap="round" stroke-linejoin="round"/>
</g>
<g opacity="0.2">
<path opacity="0.2" d="M542.545 581.085V595.335" stroke="#153144" stroke-width="6" stroke-miterlimit="10" stroke-linecap="round" stroke-linejoin="round"/>
</g>
<g opacity="0.2">
<path opacity="0.2" d="M523.545 581.085V595.335" stroke="#153144" stroke-width="6" stroke-miterlimit="10" stroke-linecap="round" stroke-linejoin="round"/>
</g>
<g opacity="0.2">
<path opacity="0.2" d="M504.545 581.085V595.335" stroke="#153144" stroke-width="6" stroke-miterlimit="10" stroke-linecap="round" stroke-linejoin="round"/>
</g>
</g>
</g>
<g opacity="0.2">
<g opacity="0.2">
<g opacity="0.2">
<path opacity="0.2" d="M599.545 543.085V557.335" stroke="#153144" stroke-width="6" stroke-miterlimit="10" stroke-linecap="round" stroke-linejoin="round"/>
</g>
<g opacity="0.2">
<path opacity="0.2" d="M580.545 543.085V557.335" stroke="#153144" stroke-width="6" stroke-miterlimit="10" stroke-linecap="round" stroke-linejoin="round"/>
</g>
<g opacity="0.2">
<path opacity="0.2" d="M561.545 543.085V557.335" stroke="#153144" stroke-width="6" stroke-miterlimit="10" stroke-linecap="round" stroke-linejoin="round"/>
</g>
<g opacity="0.2">
<path opacity="0.2" d="M542.545 543.085V557.335" stroke="#153144" stroke-width="6" stroke-miterlimit="10" stroke-linecap="round" stroke-linejoin="round"/>
</g>
<g opacity="0.2">
<path opacity="0.2" d="M523.545 543.085V557.335" stroke="#153144" stroke-width="6" stroke-miterlimit="10" stroke-linecap="round" stroke-linejoin="round"/>
</g>
<g opacity="0.2">
<path opacity="0.2" d="M504.545 543.085V557.335" stroke="#153144" stroke-width="6" stroke-miterlimit="10" stroke-linecap="round" stroke-linejoin="round"/>
</g>
</g>
</g>
<g opacity="0.2">
<g opacity="0.2">
<g opacity="0.2">
<path opacity="0.2" d="M599.545 505.085V519.335" stroke="#153144" stroke-width="6" stroke-miterlimit="10" stroke-linecap="round" stroke-linejoin="round"/>
</g>
<g opacity="0.2">
<path opacity="0.2" d="M580.545 505.085V519.335" stroke="#153144" stroke-width="6" stroke-miterlimit="10" stroke-linecap="round" stroke-linejoin="round"/>
</g>
<g opacity="0.2">
<path opacity="0.2" d="M561.545 505.085V519.335" stroke="#153144" stroke-width="6" stroke-miterlimit="10" stroke-linecap="round" stroke-linejoin="round"/>
</g>
<g opacity="0.2">
<path opacity="0.2" d="M542.545 505.085V519.335" stroke="#153144" stroke-width="6" stroke-miterlimit="10" stroke-linecap="round" stroke-linejoin="round"/>
</g>
<g opacity="0.2">
<path opacity="0.2" d="M523.545 505.085V519.335" stroke="#153144" stroke-width="6" stroke-miterlimit="10" stroke-linecap="round" stroke-linejoin="round"/>
</g>
<g opacity="0.2">
<path opacity="0.2" d="M504.545 505.085V519.335" stroke="#153144" stroke-width="6" stroke-miterlimit="10" stroke-linecap="round" stroke-linejoin="round"/>
</g>
</g>
</g>
<g opacity="0.2">
<g opacity="0.2">
<g opacity="0.2">
<path opacity="0.2" d="M599.545 467.085V481.335" stroke="#153144" stroke-width="6" stroke-miterlimit="10" stroke-linecap="round" stroke-linejoin="round"/>
</g>
<g opacity="0.2">
<path opacity="0.2" d="M580.545 467.085V481.335" stroke="#153144" stroke-width="6" stroke-miterlimit="10" stroke-linecap="round" stroke-linejoin="round"/>
</g>
<g opacity="0.2">
<path opacity="0.2" d="M561.545 467.085V481.335" stroke="#153144" stroke-width="6" stroke-miterlimit="10" stroke-linecap="round" stroke-linejoin="round"/>
</g>
<g opacity="0.2">
<path opacity="0.2" d="M542.545 467.085V481.335" stroke="#153144" stroke-width="6" stroke-miterlimit="10" stroke-linecap="round" stroke-linejoin="round"/>
</g>
<g opacity="0.2">
<path opacity="0.2" d="M523.545 467.085V481.335" stroke="#153144" stroke-width="6" stroke-miterlimit="10" stroke-linecap="round" stroke-linejoin="round"/>
</g>
<g opacity="0.2">
<path opacity="0.2" d="M504.545 467.085V481.335" stroke="#153144" stroke-width="6" stroke-miterlimit="10" stroke-linecap="round" stroke-linejoin="round"/>
</g>
</g>
</g>
</g>
<path opacity="0.2" d="M374.87 436.685H317.3V710.285H374.87V436.685Z" stroke="#153144" stroke-width="6" stroke-miterlimit="10" stroke-linecap="round" stroke-linejoin="round"/>
<g opacity="0.2">
<g opacity="0.2">
<g opacity="0.2">
<g opacity="0.2">
<path opacity="0.2" d="M333.545 619.085V633.335" stroke="#153144" stroke-width="6" stroke-miterlimit="10" stroke-linecap="round" stroke-linejoin="round"/>
<path opacity="0.36" d="M333.545 638.085V643.785" stroke="#153144" stroke-width="6" stroke-miterlimit="10" stroke-linecap="round" stroke-linejoin="round"/>
</g>
<g opacity="0.2">
<path opacity="0.2" d="M345.895 619.085V633.335" stroke="#153144" stroke-width="6" stroke-miterlimit="10" stroke-linecap="round" stroke-linejoin="round"/>
<path opacity="0.36" d="M345.895 638.085V643.785" stroke="#153144" stroke-width="6" stroke-miterlimit="10" stroke-linecap="round" stroke-linejoin="round"/>
</g>
<g opacity="0.2">
<path opacity="0.2" d="M358.245 619.085V633.335" stroke="#153144" stroke-width="6" stroke-miterlimit="10" stroke-linecap="round" stroke-linejoin="round"/>
<path opacity="0.36" d="M358.245 638.085V643.785" stroke="#153144" stroke-width="6" stroke-miterlimit="10" stroke-linecap="round" stroke-linejoin="round"/>
</g>
</g>
</g>
<g opacity="0.2">
<g opacity="0.2">
<g opacity="0.2">
<path opacity="0.2" d="M333.545 577.285V591.535" stroke="#153144" stroke-width="6" stroke-miterlimit="10" stroke-linecap="round" stroke-linejoin="round"/>
<path opacity="0.36" d="M333.545 596.285V601.985" stroke="#153144" stroke-width="6" stroke-miterlimit="10" stroke-linecap="round" stroke-linejoin="round"/>
</g>
<g opacity="0.2">
<path opacity="0.2" d="M345.895 577.285V591.535" stroke="#153144" stroke-width="6" stroke-miterlimit="10" stroke-linecap="round" stroke-linejoin="round"/>
<path opacity="0.36" d="M345.895 596.285V601.985" stroke="#153144" stroke-width="6" stroke-miterlimit="10" stroke-linecap="round" stroke-linejoin="round"/>
</g>
<g opacity="0.2">
<path opacity="0.2" d="M358.245 577.285V591.535" stroke="#153144" stroke-width="6" stroke-miterlimit="10" stroke-linecap="round" stroke-linejoin="round"/>
<path opacity="0.36" d="M358.245 596.285V601.985" stroke="#153144" stroke-width="6" stroke-miterlimit="10" stroke-linecap="round" stroke-linejoin="round"/>
</g>
</g>
</g>
<g opacity="0.2">
<g opacity="0.2">
<g opacity="0.2">
<path opacity="0.2" d="M333.545 535.485V549.735" stroke="#153144" stroke-width="6" stroke-miterlimit="10" stroke-linecap="round" stroke-linejoin="round"/>
<path opacity="0.36" d="M333.545 554.485V560.185" stroke="#153144" stroke-width="6" stroke-miterlimit="10" stroke-linecap="round" stroke-linejoin="round"/>
</g>
<g opacity="0.2">
<path opacity="0.2" d="M345.895 535.485V549.735" stroke="#153144" stroke-width="6" stroke-miterlimit="10" stroke-linecap="round" stroke-linejoin="round"/>
<path opacity="0.36" d="M345.895 554.485V560.185" stroke="#153144" stroke-width="6" stroke-miterlimit="10" stroke-linecap="round" stroke-linejoin="round"/>
</g>
<g opacity="0.2">
<path opacity="0.2" d="M358.245 535.485V549.735" stroke="#153144" stroke-width="6" stroke-miterlimit="10" stroke-linecap="round" stroke-linejoin="round"/>
<path opacity="0.36" d="M358.245 554.485V560.185" stroke="#153144" stroke-width="6" stroke-miterlimit="10" stroke-linecap="round" stroke-linejoin="round"/>
</g>
</g>
</g>
<g opacity="0.2">
<g opacity="0.2">
<g opacity="0.2">
<path opacity="0.2" d="M333.545 493.685V507.935" stroke="#153144" stroke-width="6" stroke-miterlimit="10" stroke-linecap="round" stroke-linejoin="round"/>
<path opacity="0.36" d="M333.545 512.685V518.385" stroke="#153144" stroke-width="6" stroke-miterlimit="10" stroke-linecap="round" stroke-linejoin="round"/>
</g>
<g opacity="0.2">
<path opacity="0.2" d="M345.895 493.685V507.935" stroke="#153144" stroke-width="6" stroke-miterlimit="10" stroke-linecap="round" stroke-linejoin="round"/>
<path opacity="0.36" d="M345.895 512.685V518.385" stroke="#153144" stroke-width="6" stroke-miterlimit="10" stroke-linecap="round" stroke-linejoin="round"/>
</g>
<g opacity="0.2">
<path opacity="0.2" d="M358.245 493.685V507.935" stroke="#153144" stroke-width="6" stroke-miterlimit="10" stroke-linecap="round" stroke-linejoin="round"/>
<path opacity="0.36" d="M358.245 512.685V518.385" stroke="#153144" stroke-width="6" stroke-miterlimit="10" stroke-linecap="round" stroke-linejoin="round"/>
</g>
</g>
</g>
<g opacity="0.2">
<g opacity="0.2">
<g opacity="0.2">
<path opacity="0.2" d="M333.545 451.885V466.135" stroke="#153144" stroke-width="6" stroke-miterlimit="10" stroke-linecap="round" stroke-linejoin="round"/>
<path opacity="0.36" d="M333.545 470.885V476.585" stroke="#153144" stroke-width="6" stroke-miterlimit="10" stroke-linecap="round" stroke-linejoin="round"/>
</g>
<g opacity="0.2">
<path opacity="0.2" d="M345.895 451.885V466.135" stroke="#153144" stroke-width="6" stroke-miterlimit="10" stroke-linecap="round" stroke-linejoin="round"/>
<path opacity="0.36" d="M345.895 470.885V476.585" stroke="#153144" stroke-width="6" stroke-miterlimit="10" stroke-linecap="round" stroke-linejoin="round"/>
</g>
<g opacity="0.2">
<path opacity="0.2" d="M358.245 451.885V466.135" stroke="#153144" stroke-width="6" stroke-miterlimit="10" stroke-linecap="round" stroke-linejoin="round"/>
<path opacity="0.36" d="M358.245 470.885V476.585" stroke="#153144" stroke-width="6" stroke-miterlimit="10" stroke-linecap="round" stroke-linejoin="round"/>
</g>
</g>
</g>
</g>
<path opacity="0.2" d="M678.11 630.295C699.621 630.295 717.06 606.094 717.06 576.24C717.06 546.386 699.621 522.185 678.11 522.185C656.599 522.185 639.16 546.386 639.16 576.24C639.16 606.094 656.599 630.295 678.11 630.295Z" stroke="#153144" stroke-width="6" stroke-miterlimit="10" stroke-linecap="round" stroke-linejoin="round"/>
<path opacity="0.2" d="M679.63 607.97L690.745 596.76" stroke="#153144" stroke-width="6" stroke-miterlimit="10" stroke-linecap="round" stroke-linejoin="round"/>
<path opacity="0.2" d="M678.11 590.965L666.235 579.85" stroke="#153144" stroke-width="6" stroke-miterlimit="10" stroke-linecap="round" stroke-linejoin="round"/>
<path opacity="0.2" d="M679.63 563.89V679.03" stroke="#153144" stroke-width="6" stroke-miterlimit="10" stroke-linecap="round" stroke-linejoin="round"/>
<path opacity="0.2" d="M429.02 222.65V272.43" stroke="#153144" stroke-width="6" stroke-miterlimit="10" stroke-linecap="round" stroke-linejoin="round"/>
</g>
<path d="M144.875 600.655C154.844 600.655 162.925 595.891 162.925 590.015C162.925 584.139 154.844 579.375 144.875 579.375C134.906 579.375 126.825 584.139 126.825 590.015C126.825 595.891 134.906 600.655 144.875 600.655Z" fill="#153144"/>
<path d="M367.745 456.35H219.07V423.195L176.51 431.745L219.07 392.13V317.08H367.745V456.35Z" fill="white"/>
<path d="M353.305 456.35H228.76C220.78 456.35 214.32 449.89 214.32 441.91V423.195L171.665 431.745L214.32 392.13V331.52C214.32 323.54 220.78 317.08 228.76 317.08H353.305C361.285 317.08 367.745 323.54 367.745 331.52V441.91C367.745 449.89 361.285 456.35 353.305 456.35Z" fill="white"/>
<path d="M248.83 381.15C248.57 381.15 248.31 381.07 248.05 380.91C247.81 380.75 247.62 380.52 247.48 380.22L243.22 371.94H240.7V379.74C240.7 380.16 240.5 380.48 240.1 380.7C239.7 380.9 239.25 381 238.75 381C238.27 381 237.82 380.9 237.4 380.7C237 380.48 236.8 380.16 236.8 379.74V360.3C236.8 359.96 236.91 359.67 237.13 359.43C237.37 359.19 237.68 359.07 238.06 359.07H244C245.32 359.07 246.51 359.26 247.57 359.64C248.65 360.02 249.51 360.67 250.15 361.59C250.79 362.49 251.11 363.74 251.11 365.34C251.11 366.5 250.94 367.49 250.6 368.31C250.26 369.11 249.79 369.76 249.19 370.26C248.61 370.74 247.94 371.1 247.18 371.34L251.14 378.63C251.18 378.71 251.21 378.8 251.23 378.9C251.25 378.98 251.26 379.05 251.26 379.11C251.26 379.43 251.14 379.75 250.9 380.07C250.66 380.39 250.35 380.65 249.97 380.85C249.61 381.05 249.23 381.15 248.83 381.15ZM240.7 368.88H244C244.98 368.88 245.76 368.64 246.34 368.16C246.92 367.68 247.21 366.86 247.21 365.7C247.21 364.5 246.92 363.67 246.34 363.21C245.76 362.73 244.98 362.49 244 362.49H240.7V368.88ZM255.561 381C255.141 381 254.751 380.9 254.391 380.7C254.031 380.48 253.851 380.16 253.851 379.74V360.33C253.851 359.91 254.031 359.6 254.391 359.4C254.751 359.18 255.141 359.07 255.561 359.07H266.241C266.681 359.07 266.991 359.25 267.171 359.61C267.371 359.97 267.471 360.35 267.471 360.75C267.471 361.23 267.361 361.64 267.141 361.98C266.941 362.32 266.641 362.49 266.241 362.49H257.751V368.49H262.311C262.711 368.49 263.011 368.65 263.211 368.97C263.431 369.27 263.541 369.63 263.541 370.05C263.541 370.39 263.441 370.73 263.241 371.07C263.061 371.39 262.751 371.55 262.311 371.55H257.751V377.58H266.241C266.641 377.58 266.941 377.75 267.141 378.09C267.361 378.43 267.471 378.84 267.471 379.32C267.471 379.72 267.371 380.1 267.171 380.46C266.991 380.82 266.681 381 266.241 381H255.561ZM270.689 381C270.329 381 269.959 380.93 269.579 380.79C269.199 380.65 268.879 380.46 268.619 380.22C268.359 379.98 268.229 379.7 268.229 379.38C268.229 379.32 268.239 379.22 268.259 379.08L274.049 360.21C274.189 359.77 274.499 359.44 274.979 359.22C275.479 359 276.009 358.89 276.569 358.89C277.149 358.89 277.679 359 278.159 359.22C278.639 359.44 278.949 359.77 279.089 360.21L284.879 379.08C284.919 379.22 284.939 379.32 284.939 379.38C284.939 379.68 284.799 379.96 284.519 380.22C284.259 380.46 283.939 380.65 283.559 380.79C283.179 380.93 282.809 381 282.449 381C282.129 381 281.849 380.95 281.609 380.85C281.389 380.73 281.239 380.52 281.159 380.22L280.019 376.23H273.119L272.009 380.22C271.929 380.52 271.769 380.73 271.529 380.85C271.289 380.95 271.009 381 270.689 381ZM273.959 373.17H279.179L276.569 363.96L273.959 373.17ZM293.676 381.18C292.436 381.18 291.286 380.96 290.226 380.52C289.166 380.06 288.316 379.33 287.676 378.33C287.056 377.31 286.746 375.96 286.746 374.28V365.97C286.746 364.29 287.056 362.95 287.676 361.95C288.316 360.93 289.166 360.2 290.226 359.76C291.286 359.3 292.446 359.07 293.706 359.07C295.106 359.07 296.336 359.31 297.396 359.79C298.476 360.25 299.316 360.9 299.916 361.74C300.536 362.58 300.846 363.59 300.846 364.77C300.846 365.55 300.686 366.07 300.366 366.33C300.046 366.57 299.556 366.69 298.896 366.69C298.356 366.69 297.896 366.6 297.516 366.42C297.156 366.22 296.966 365.9 296.946 365.46C296.946 365.22 296.906 364.94 296.826 364.62C296.766 364.28 296.636 363.95 296.436 363.63C296.236 363.31 295.926 363.04 295.506 362.82C295.106 362.6 294.546 362.49 293.826 362.49C292.806 362.49 292.026 362.78 291.486 363.36C290.946 363.92 290.676 364.79 290.676 365.97V374.28C290.676 375.48 290.946 376.36 291.486 376.92C292.046 377.48 292.846 377.76 293.886 377.76C294.566 377.76 295.106 377.65 295.506 377.43C295.906 377.21 296.196 376.94 296.376 376.62C296.576 376.28 296.706 375.93 296.766 375.57C296.846 375.21 296.906 374.87 296.946 374.55C296.986 374.07 297.186 373.75 297.546 373.59C297.906 373.41 298.346 373.32 298.866 373.32C299.546 373.32 300.046 373.45 300.366 373.71C300.686 373.97 300.846 374.48 300.846 375.24C300.846 376.44 300.536 377.49 299.916 378.39C299.316 379.29 298.476 379.98 297.396 380.46C296.316 380.94 295.076 381.18 293.676 381.18ZM309.569 381C309.069 381 308.619 380.9 308.219 380.7C307.819 380.48 307.619 380.16 307.619 379.74V362.58H303.209C302.829 362.58 302.529 362.4 302.309 362.04C302.089 361.68 301.979 361.27 301.979 360.81C301.979 360.39 302.079 360 302.279 359.64C302.479 359.26 302.789 359.07 303.209 359.07H315.899C316.339 359.07 316.649 359.26 316.829 359.64C317.029 360 317.129 360.39 317.129 360.81C317.129 361.27 317.019 361.68 316.799 362.04C316.599 362.4 316.299 362.58 315.899 362.58H311.519V379.74C311.519 380.16 311.309 380.48 310.889 380.7C310.489 380.9 310.049 381 309.569 381ZM319.812 365.67C319.532 365.67 319.242 365.59 318.942 365.43C318.662 365.25 318.522 364.99 318.522 364.65C318.522 364.51 318.562 364.37 318.642 364.23L319.332 362.64C318.992 362.46 318.722 362.21 318.522 361.89C318.322 361.57 318.222 361.21 318.222 360.81C318.222 360.25 318.412 359.77 318.792 359.37C319.192 358.97 319.672 358.77 320.232 358.77C320.792 358.77 321.272 358.97 321.672 359.37C322.072 359.77 322.272 360.24 322.272 360.78C322.272 360.88 322.252 361.01 322.212 361.17C322.172 361.33 322.092 361.56 321.972 361.86C321.872 362.14 321.712 362.55 321.492 363.09C321.272 363.63 320.972 364.33 320.592 365.19C320.532 365.35 320.422 365.47 320.262 365.55C320.102 365.63 319.952 365.67 319.812 365.67ZM326.582 381C326.102 381 325.652 380.9 325.232 380.7C324.832 380.48 324.632 380.16 324.632 379.74V360.3C324.632 359.86 324.832 359.55 325.232 359.37C325.652 359.17 326.102 359.07 326.582 359.07C327.082 359.07 327.532 359.17 327.932 359.37C328.332 359.55 328.532 359.86 328.532 360.3V379.74C328.532 380.16 328.332 380.48 327.932 380.7C327.532 380.9 327.082 381 326.582 381ZM334.111 381C333.631 381 333.181 380.9 332.761 380.7C332.361 380.48 332.161 380.17 332.161 379.77V360.33C332.161 359.91 332.341 359.6 332.701 359.4C333.061 359.18 333.451 359.07 333.871 359.07H344.341C344.781 359.07 345.091 359.25 345.271 359.61C345.471 359.97 345.571 360.35 345.571 360.75C345.571 361.23 345.461 361.64 345.241 361.98C345.041 362.32 344.741 362.49 344.341 362.49H336.061V368.49H340.651C341.051 368.49 341.351 368.65 341.551 368.97C341.771 369.27 341.881 369.63 341.881 370.05C341.881 370.39 341.781 370.73 341.581 371.07C341.401 371.39 341.091 371.55 340.651 371.55H336.061V379.77C336.061 380.17 335.861 380.48 335.461 380.7C335.061 380.9 334.611 381 334.111 381Z" fill="#6563FF"/>
<path d="M219.648 414.216C218.8 414.216 218.064 413.96 217.44 413.448C216.832 412.92 216.528 412.112 216.528 411.024C216.528 410.112 216.76 409.4 217.224 408.888C217.704 408.376 218.36 408.016 219.192 407.808C220.04 407.6 221.016 407.496 222.12 407.496H223.104V407.184C223.104 406.832 223.032 406.488 222.888 406.152C222.76 405.816 222.544 405.536 222.24 405.312C221.952 405.088 221.536 404.976 220.992 404.976C220.384 404.976 219.912 405.04 219.576 405.168C219.256 405.28 219.008 405.4 218.832 405.528C218.656 405.656 218.464 405.72 218.256 405.72C217.92 405.72 217.656 405.552 217.464 405.216C217.288 404.88 217.2 404.536 217.2 404.184C217.2 403.848 217.4 403.552 217.8 403.296C218.216 403.024 218.72 402.816 219.312 402.672C219.904 402.528 220.48 402.456 221.04 402.456C222.288 402.456 223.288 402.68 224.04 403.128C224.792 403.576 225.336 404.152 225.672 404.856C226.024 405.56 226.2 406.32 226.2 407.136V412.992C226.2 413.28 226.056 413.52 225.768 413.712C225.48 413.904 225.12 414 224.688 414C224.288 414 223.952 413.904 223.68 413.712C223.424 413.52 223.296 413.28 223.296 412.992V412.32C222.864 412.816 222.352 413.256 221.76 413.64C221.184 414.024 220.48 414.216 219.648 414.216ZM220.896 411.912C221.232 411.912 221.568 411.8 221.904 411.576C222.24 411.352 222.52 411.064 222.744 410.712C222.984 410.36 223.104 409.992 223.104 409.608V409.104H222.744C222.216 409.104 221.712 409.136 221.232 409.2C220.752 409.264 220.36 409.408 220.056 409.632C219.768 409.84 219.624 410.168 219.624 410.616C219.624 411.064 219.744 411.392 219.984 411.6C220.24 411.808 220.544 411.912 220.896 411.912ZM222.264 400.488C222.2 400.488 222.144 400.48 222.096 400.464C222.048 400.432 221.992 400.408 221.928 400.392L218.808 398.904C218.52 398.744 218.376 398.496 218.376 398.16C218.376 397.888 218.464 397.624 218.64 397.368C218.832 397.112 219.064 396.984 219.336 396.984C219.432 396.984 219.536 397 219.648 397.032L222.816 398.568C223.088 398.712 223.224 398.96 223.224 399.312C223.224 399.568 223.128 399.832 222.936 400.104C222.76 400.36 222.536 400.488 222.264 400.488ZM237.862 414.264C237.542 414.264 237.246 414.216 236.974 414.12C236.702 414.024 236.526 413.888 236.446 413.712L232.342 404.208C232.31 404.16 232.278 404.096 232.246 404.016C232.23 403.92 232.222 403.84 232.222 403.776C232.222 403.536 232.334 403.32 232.558 403.128C232.798 402.92 233.078 402.76 233.398 402.648C233.718 402.52 234.014 402.456 234.286 402.456C234.478 402.456 234.654 402.496 234.814 402.576C234.99 402.656 235.11 402.792 235.174 402.984L237.862 409.944L240.526 403.032C240.59 402.824 240.702 402.68 240.862 402.6C241.022 402.504 241.206 402.456 241.414 402.456C241.622 402.456 241.886 402.52 242.206 402.648C242.542 402.76 242.838 402.92 243.094 403.128C243.35 403.336 243.478 403.56 243.478 403.8C243.478 403.88 243.47 403.952 243.454 404.016C243.438 404.08 243.414 404.144 243.382 404.208L239.254 413.712C239.174 413.888 238.998 414.024 238.726 414.12C238.454 414.216 238.166 414.264 237.862 414.264ZM249.468 414.216C248.54 414.216 247.684 413.992 246.9 413.544C246.116 413.08 245.484 412.472 245.004 411.72C244.524 410.968 244.284 410.16 244.284 409.296V407.328C244.284 406.464 244.516 405.664 244.98 404.928C245.444 404.176 246.068 403.576 246.852 403.128C247.652 402.68 248.524 402.456 249.468 402.456C250.412 402.456 251.276 402.68 252.06 403.128C252.86 403.56 253.492 404.144 253.956 404.88C254.436 405.616 254.676 406.432 254.676 407.328V409.296C254.676 410.144 254.436 410.944 253.956 411.696C253.476 412.448 252.836 413.056 252.036 413.52C251.252 413.984 250.396 414.216 249.468 414.216ZM249.468 411.504C249.852 411.504 250.204 411.4 250.524 411.192C250.844 410.984 251.1 410.712 251.292 410.376C251.484 410.024 251.58 409.664 251.58 409.296V407.328C251.58 406.96 251.484 406.616 251.292 406.296C251.1 405.976 250.844 405.712 250.524 405.504C250.22 405.28 249.868 405.168 249.468 405.168C249.084 405.168 248.732 405.272 248.412 405.48C248.092 405.688 247.836 405.96 247.644 406.296C247.468 406.616 247.38 406.96 247.38 407.328V409.296C247.38 409.664 247.468 410.024 247.644 410.376C247.836 410.712 248.092 410.984 248.412 411.192C248.732 411.4 249.084 411.504 249.468 411.504ZM261.037 414C259.597 414 258.493 413.688 257.725 413.064C256.973 412.44 256.597 411.448 256.597 410.088V398.472C256.597 398.184 256.765 397.952 257.101 397.776C257.437 397.6 257.781 397.512 258.133 397.512C258.517 397.512 258.869 397.6 259.189 397.776C259.525 397.952 259.693 398.184 259.693 398.472V402.6H262.525C262.781 402.6 262.973 402.72 263.101 402.96C263.245 403.184 263.317 403.44 263.317 403.728C263.317 404.016 263.245 404.28 263.101 404.52C262.973 404.744 262.781 404.856 262.525 404.856H259.693V410.088C259.693 410.568 259.789 410.904 259.981 411.096C260.189 411.288 260.541 411.384 261.037 411.384H261.973C262.421 411.384 262.749 411.52 262.957 411.792C263.181 412.064 263.293 412.36 263.293 412.68C263.293 413.016 263.181 413.32 262.957 413.592C262.749 413.864 262.421 414 261.973 414H261.037ZM266.407 414C265.975 414 265.615 413.896 265.327 413.688C265.039 413.48 264.895 413.248 264.895 412.992V403.56C264.895 403.272 265.039 403.04 265.327 402.864C265.615 402.688 265.975 402.6 266.407 402.6C266.807 402.6 267.135 402.688 267.391 402.864C267.663 403.04 267.799 403.272 267.799 403.56V404.544C267.975 404.192 268.207 403.864 268.495 403.56C268.799 403.24 269.143 402.976 269.527 402.768C269.911 402.56 270.319 402.456 270.751 402.456H271.495C271.799 402.456 272.063 402.592 272.287 402.864C272.511 403.12 272.623 403.432 272.623 403.8C272.623 404.184 272.511 404.512 272.287 404.784C272.063 405.04 271.799 405.168 271.495 405.168H270.751C270.303 405.168 269.863 405.32 269.431 405.624C269.015 405.912 268.671 406.32 268.399 406.848C268.127 407.36 267.991 407.984 267.991 408.72V412.992C267.991 413.248 267.839 413.48 267.535 413.688C267.231 413.896 266.855 414 266.407 414ZM278.99 414.216C277.854 414.216 276.846 414.016 275.966 413.616C275.102 413.2 274.422 412.624 273.926 411.888C273.43 411.136 273.182 410.272 273.182 409.296V407.256C273.182 406.392 273.414 405.6 273.878 404.88C274.358 404.144 274.99 403.56 275.774 403.128C276.574 402.68 277.462 402.456 278.438 402.456C279.334 402.456 280.15 402.648 280.886 403.032C281.638 403.416 282.246 403.944 282.71 404.616C283.174 405.288 283.406 406.072 283.406 406.968C283.406 407.656 283.294 408.152 283.07 408.456C282.846 408.744 282.558 408.928 282.206 409.008C281.87 409.072 281.518 409.104 281.15 409.104H276.278V409.464C276.278 410.152 276.534 410.712 277.046 411.144C277.574 411.56 278.254 411.768 279.086 411.768C279.614 411.768 280.054 411.688 280.406 411.528C280.758 411.368 281.062 411.216 281.318 411.072C281.574 410.928 281.814 410.856 282.038 410.856C282.278 410.856 282.486 410.936 282.662 411.096C282.838 411.256 282.974 411.448 283.07 411.672C283.166 411.88 283.214 412.064 283.214 412.224C283.214 412.496 283.038 412.792 282.686 413.112C282.35 413.416 281.862 413.68 281.222 413.904C280.598 414.112 279.854 414.216 278.99 414.216ZM276.278 407.28H279.782C280.054 407.28 280.238 407.24 280.334 407.16C280.446 407.064 280.502 406.888 280.502 406.632C280.502 406.264 280.398 405.936 280.19 405.648C279.998 405.36 279.742 405.136 279.422 404.976C279.118 404.816 278.774 404.736 278.39 404.736C278.022 404.736 277.678 404.816 277.358 404.976C277.038 405.12 276.774 405.336 276.566 405.624C276.374 405.896 276.278 406.224 276.278 406.608V407.28ZM293.787 414.216C292.987 414.216 292.251 414.12 291.579 413.928C290.923 413.72 290.403 413.456 290.019 413.136C289.651 412.816 289.467 412.488 289.467 412.152C289.467 411.976 289.507 411.784 289.587 411.576C289.683 411.368 289.803 411.184 289.947 411.024C290.107 410.864 290.291 410.784 290.499 410.784C290.723 410.784 290.955 410.88 291.195 411.072C291.451 411.248 291.763 411.424 292.131 411.6C292.515 411.776 293.043 411.864 293.715 411.864C294.435 411.864 294.907 411.752 295.131 411.528C295.371 411.304 295.491 411.072 295.491 410.832C295.491 410.48 295.347 410.208 295.059 410.016C294.787 409.824 294.435 409.672 294.003 409.56C293.571 409.432 293.107 409.296 292.611 409.152C292.131 409.008 291.675 408.824 291.243 408.6C290.811 408.36 290.459 408.04 290.187 407.64C289.915 407.224 289.779 406.688 289.779 406.032C289.779 405.456 289.915 404.896 290.187 404.352C290.459 403.808 290.907 403.36 291.531 403.008C292.155 402.64 293.003 402.456 294.075 402.456C294.731 402.456 295.347 402.528 295.923 402.672C296.515 402.8 296.995 402.984 297.363 403.224C297.731 403.464 297.915 403.728 297.915 404.016C297.915 404.16 297.867 404.352 297.771 404.592C297.675 404.816 297.539 405.024 297.363 405.216C297.203 405.408 297.003 405.504 296.763 405.504C296.587 405.504 296.371 405.448 296.115 405.336C295.875 405.208 295.595 405.088 295.275 404.976C294.955 404.864 294.571 404.808 294.123 404.808C293.723 404.808 293.403 404.864 293.163 404.976C292.923 405.088 292.747 405.224 292.635 405.384C292.523 405.544 292.467 405.712 292.467 405.888C292.467 406.176 292.603 406.4 292.875 406.56C293.147 406.72 293.499 406.856 293.931 406.968C294.379 407.08 294.843 407.208 295.323 407.352C295.819 407.48 296.283 407.672 296.715 407.928C297.163 408.184 297.523 408.536 297.795 408.984C298.067 409.416 298.203 409.984 298.203 410.688C298.203 411.76 297.819 412.616 297.051 413.256C296.299 413.896 295.211 414.216 293.787 414.216ZM305.451 414.216C304.315 414.216 303.307 414.016 302.427 413.616C301.563 413.2 300.883 412.624 300.387 411.888C299.891 411.136 299.643 410.272 299.643 409.296V407.256C299.643 406.392 299.875 405.6 300.339 404.88C300.819 404.144 301.451 403.56 302.235 403.128C303.035 402.68 303.923 402.456 304.899 402.456C305.795 402.456 306.611 402.648 307.347 403.032C308.099 403.416 308.707 403.944 309.171 404.616C309.635 405.288 309.867 406.072 309.867 406.968C309.867 407.656 309.755 408.152 309.531 408.456C309.307 408.744 309.019 408.928 308.667 409.008C308.331 409.072 307.979 409.104 307.611 409.104H302.739V409.464C302.739 410.152 302.995 410.712 303.507 411.144C304.035 411.56 304.715 411.768 305.547 411.768C306.075 411.768 306.515 411.688 306.867 411.528C307.219 411.368 307.523 411.216 307.779 411.072C308.035 410.928 308.275 410.856 308.499 410.856C308.739 410.856 308.947 410.936 309.123 411.096C309.299 411.256 309.435 411.448 309.531 411.672C309.627 411.88 309.675 412.064 309.675 412.224C309.675 412.496 309.499 412.792 309.147 413.112C308.811 413.416 308.323 413.68 307.683 413.904C307.059 414.112 306.315 414.216 305.451 414.216ZM302.739 407.28H306.243C306.515 407.28 306.699 407.24 306.795 407.16C306.907 407.064 306.963 406.888 306.963 406.632C306.963 406.264 306.859 405.936 306.651 405.648C306.459 405.36 306.203 405.136 305.883 404.976C305.579 404.816 305.235 404.736 304.851 404.736C304.483 404.736 304.139 404.816 303.819 404.976C303.499 405.12 303.235 405.336 303.027 405.624C302.835 405.896 302.739 406.224 302.739 406.608V407.28ZM313.235 414C312.803 414 312.443 413.896 312.155 413.688C311.867 413.48 311.723 413.248 311.723 412.992V403.56C311.723 403.272 311.867 403.04 312.155 402.864C312.443 402.688 312.803 402.6 313.235 402.6C313.635 402.6 313.963 402.688 314.219 402.864C314.491 403.04 314.627 403.272 314.627 403.56V404.544C314.803 404.192 315.035 403.864 315.323 403.56C315.627 403.24 315.971 402.976 316.355 402.768C316.739 402.56 317.147 402.456 317.579 402.456H318.323C318.627 402.456 318.891 402.592 319.115 402.864C319.339 403.12 319.451 403.432 319.451 403.8C319.451 404.184 319.339 404.512 319.115 404.784C318.891 405.04 318.627 405.168 318.323 405.168H317.579C317.131 405.168 316.691 405.32 316.259 405.624C315.843 405.912 315.499 406.32 315.227 406.848C314.955 407.36 314.819 407.984 314.819 408.72V412.992C314.819 413.248 314.667 413.48 314.363 413.688C314.059 413.896 313.683 414 313.235 414ZM325.283 414.264C324.963 414.264 324.667 414.216 324.395 414.12C324.123 414.024 323.947 413.888 323.867 413.712L319.763 404.208C319.731 404.16 319.699 404.096 319.667 404.016C319.651 403.92 319.643 403.84 319.643 403.776C319.643 403.536 319.755 403.32 319.979 403.128C320.219 402.92 320.499 402.76 320.819 402.648C321.139 402.52 321.435 402.456 321.707 402.456C321.899 402.456 322.075 402.496 322.235 402.576C322.411 402.656 322.531 402.792 322.595 402.984L325.283 409.944L327.947 403.032C328.011 402.824 328.123 402.68 328.283 402.6C328.443 402.504 328.627 402.456 328.835 402.456C329.043 402.456 329.307 402.52 329.627 402.648C329.963 402.76 330.259 402.92 330.515 403.128C330.771 403.336 330.899 403.56 330.899 403.8C330.899 403.88 330.891 403.952 330.875 404.016C330.859 404.08 330.835 404.144 330.803 404.208L326.675 413.712C326.595 413.888 326.419 414.024 326.147 414.12C325.875 414.216 325.587 414.264 325.283 414.264ZM333.744 400.056C333.28 400.056 332.88 399.904 332.544 399.6C332.208 399.28 332.04 398.928 332.04 398.544C332.04 398.128 332.208 397.776 332.544 397.488C332.88 397.184 333.28 397.032 333.744 397.032C334.224 397.032 334.624 397.184 334.944 397.488C335.264 397.776 335.424 398.128 335.424 398.544C335.424 398.928 335.264 399.28 334.944 399.6C334.624 399.904 334.224 400.056 333.744 400.056ZM333.744 414C333.296 414 332.928 413.896 332.64 413.688C332.352 413.48 332.208 413.248 332.208 412.992V403.56C332.208 403.272 332.352 403.04 332.64 402.864C332.928 402.688 333.296 402.6 333.744 402.6C334.176 402.6 334.544 402.688 334.848 402.864C335.152 403.04 335.304 403.272 335.304 403.56V412.992C335.304 413.248 335.152 413.48 334.848 413.688C334.544 413.896 334.176 414 333.744 414ZM342.493 414.216C341.277 414.216 340.285 414 339.517 413.568C338.749 413.136 338.181 412.552 337.813 411.816C337.445 411.064 337.261 410.224 337.261 409.296V407.376C337.261 406.448 337.437 405.616 337.789 404.88C338.157 404.128 338.725 403.536 339.493 403.104C340.277 402.672 341.261 402.456 342.445 402.456C343.197 402.456 343.861 402.544 344.437 402.72C345.013 402.896 345.469 403.128 345.805 403.416C346.141 403.704 346.309 404.008 346.309 404.328C346.309 404.52 346.253 404.736 346.141 404.976C346.045 405.2 345.901 405.4 345.709 405.576C345.533 405.752 345.325 405.84 345.085 405.84C344.909 405.84 344.725 405.784 344.533 405.672C344.357 405.56 344.125 405.448 343.837 405.336C343.549 405.224 343.165 405.168 342.685 405.168C341.869 405.168 341.277 405.368 340.909 405.768C340.541 406.152 340.357 406.688 340.357 407.376V409.296C340.357 409.984 340.541 410.528 340.909 410.928C341.277 411.312 341.877 411.504 342.709 411.504C343.205 411.504 343.589 411.44 343.861 411.312C344.133 411.184 344.357 411.064 344.533 410.952C344.725 410.84 344.917 410.784 345.109 410.784C345.397 410.784 345.637 410.864 345.829 411.024C346.037 411.184 346.189 411.384 346.285 411.624C346.397 411.848 346.453 412.056 346.453 412.248C346.453 412.568 346.277 412.88 345.925 413.184C345.589 413.488 345.117 413.736 344.509 413.928C343.917 414.12 343.245 414.216 342.493 414.216ZM353.31 414.216C352.174 414.216 351.166 414.016 350.286 413.616C349.422 413.2 348.742 412.624 348.246 411.888C347.75 411.136 347.502 410.272 347.502 409.296V407.256C347.502 406.392 347.734 405.6 348.198 404.88C348.678 404.144 349.31 403.56 350.094 403.128C350.894 402.68 351.782 402.456 352.758 402.456C353.654 402.456 354.47 402.648 355.206 403.032C355.958 403.416 356.566 403.944 357.03 404.616C357.494 405.288 357.726 406.072 357.726 406.968C357.726 407.656 357.614 408.152 357.39 408.456C357.166 408.744 356.878 408.928 356.526 409.008C356.19 409.072 355.838 409.104 355.47 409.104H350.598V409.464C350.598 410.152 350.854 410.712 351.366 411.144C351.894 411.56 352.574 411.768 353.406 411.768C353.934 411.768 354.374 411.688 354.726 411.528C355.078 411.368 355.382 411.216 355.638 411.072C355.894 410.928 356.134 410.856 356.358 410.856C356.598 410.856 356.806 410.936 356.982 411.096C357.158 411.256 357.294 411.448 357.39 411.672C357.486 411.88 357.534 412.064 357.534 412.224C357.534 412.496 357.358 412.792 357.006 413.112C356.67 413.416 356.182 413.68 355.542 413.904C354.918 414.112 354.174 414.216 353.31 414.216ZM350.598 407.28H354.102C354.374 407.28 354.558 407.24 354.654 407.16C354.766 407.064 354.822 406.888 354.822 406.632C354.822 406.264 354.718 405.936 354.51 405.648C354.318 405.36 354.062 405.136 353.742 404.976C353.438 404.816 353.094 404.736 352.71 404.736C352.342 404.736 351.998 404.816 351.678 404.976C351.358 405.12 351.094 405.336 350.886 405.624C350.694 405.896 350.598 406.224 350.598 406.608V407.28Z" fill="black"/>
<path d="M353.305 456.35H228.76C220.78 456.35 214.32 449.89 214.32 441.91V423.195L171.665 431.745L214.32 392.13V331.52C214.32 323.54 220.78 317.08 228.76 317.08H353.305C361.285 317.08 367.745 323.54 367.745 331.52V441.91C367.745 449.89 361.285 456.35 353.305 456.35Z" stroke="#153144" stroke-width="8" stroke-miterlimit="10" stroke-linecap="round" stroke-linejoin="round"/>
<path d="M780.9 709.715C777.005 666.015 744.42 631.815 704.805 631.815C665.19 631.815 632.51 666.015 628.71 709.715H780.9Z" fill="#6563FF"/>
<path opacity="0.3" d="M727.7 661.55C727.7 651.385 724.755 641.79 719.72 633.43C714.875 632.385 709.935 631.815 704.805 631.815C665.19 631.815 632.51 666.015 628.71 709.715H699.77C716.585 698.98 727.7 681.405 727.7 661.55Z" fill="#7EB25B"/>
<path d="M821.275 709.715C819.185 686.535 801.895 668.39 780.9 668.39C759.905 668.39 742.615 686.535 740.525 709.715H821.275Z" fill="#6563FF"/>
<path opacity="0.3" d="M793.06 684.16C793.06 678.745 791.54 673.71 788.785 669.245C786.22 668.675 783.56 668.39 780.9 668.39C759.905 668.39 742.615 686.535 740.525 709.715H778.24C787.17 704.015 793.06 694.705 793.06 684.16Z" fill="#7EB25B"/>
<path d="M708.415 660.695V709.715" stroke="#153144" stroke-width="8" stroke-miterlimit="10" stroke-linecap="round" stroke-linejoin="round"/>
<path d="M682.765 668.39L708.415 684.255" stroke="#153144" stroke-width="8" stroke-miterlimit="10" stroke-linecap="round" stroke-linejoin="round"/>
<path d="M708.89 701.735L729.03 685.205" stroke="#153144" stroke-width="8" stroke-miterlimit="10" stroke-linecap="round" stroke-linejoin="round"/>
<path d="M748.315 545.365C787.665 545.365 819.565 499.855 819.565 443.715C819.565 387.575 787.665 342.065 748.315 342.065C708.965 342.065 677.065 387.575 677.065 443.715C677.065 499.855 708.965 545.365 748.315 545.365Z" fill="#6563FF"/>
<path opacity="0.3" d="M677.065 443.715C677.065 465.565 681.91 485.8 690.175 502.425C697.585 506.605 705.565 508.885 713.925 508.885C749.74 508.885 778.81 467.465 778.81 416.26C778.81 386.05 768.645 359.26 752.97 342.35C751.45 342.16 749.835 342.16 748.315 342.16C708.985 342.065 677.065 387.57 677.065 443.715Z" fill="#7EB25B"/>
<path d="M827.735 709.715H226.1C217.835 709.715 211.09 702.97 211.09 694.705C211.09 686.44 217.835 679.695 226.1 679.695H245.29C251.94 679.695 257.355 674.28 257.355 667.63C257.355 660.98 251.94 655.565 245.29 655.565H176.7C169.575 655.565 163.875 649.865 163.875 642.74C163.875 635.615 169.575 629.915 176.7 629.915H191.14C201.495 629.915 209.855 621.555 209.855 611.2C209.855 600.845 201.495 592.485 191.14 592.485H144.875" stroke="#153144" stroke-width="8" stroke-miterlimit="10" stroke-linecap="round" stroke-linejoin="round"/>
<path d="M876.47 709.715H848.635" stroke="#153144" stroke-width="8" stroke-miterlimit="10" stroke-linecap="round" stroke-linejoin="round"/>
<path d="M111.055 458.725C129.2 438.87 160.455 438.87 178.6 458.725C191.235 472.595 194.085 492.925 185.82 509.74L144.875 592.485L103.93 509.74C95.5698 492.925 98.4198 472.595 111.055 458.725Z" fill="#6563FF"/>
<path d="M111.055 476.585C129.2 456.73 160.455 456.73 178.6 476.585C184.3 482.855 188.005 490.455 189.62 498.435C192.47 484.375 188.575 469.555 178.6 458.63C160.455 438.775 129.2 438.775 111.055 458.63C101.08 469.555 97.185 484.375 100.035 498.435C101.65 490.455 105.355 482.95 111.055 476.585Z" fill="#6563FF"/>
<path d="M111.055 458.725C129.2 438.87 160.455 438.87 178.6 458.725C191.235 472.595 194.085 492.925 185.82 509.74L144.875 592.485L103.93 509.74C95.5698 492.925 98.4198 472.595 111.055 458.725Z" stroke="#153144" stroke-width="8" stroke-miterlimit="10" stroke-linecap="round" stroke-linejoin="round"/>
<path d="M144.875 511.45C157.1 511.45 167.01 501.54 167.01 489.315C167.01 477.09 157.1 467.18 144.875 467.18C132.65 467.18 122.74 477.09 122.74 489.315C122.74 501.54 132.65 511.45 144.875 511.45Z" fill="white"/>
<path d="M144.875 511.45C157.1 511.45 167.01 501.54 167.01 489.315C167.01 477.09 157.1 467.18 144.875 467.18C132.65 467.18 122.74 477.09 122.74 489.315C122.74 501.54 132.65 511.45 144.875 511.45Z" stroke="#153144" stroke-width="8" stroke-miterlimit="10" stroke-linecap="round" stroke-linejoin="round"/>
<path d="M744.895 394.695C748.882 394.695 752.115 387.294 752.115 378.165C752.115 369.036 748.882 361.635 744.895 361.635C740.908 361.635 737.675 369.036 737.675 378.165C737.675 387.294 740.908 394.695 744.895 394.695Z" stroke="#153144" stroke-width="6" stroke-miterlimit="10" stroke-linecap="round" stroke-linejoin="round"/>
<path d="M727.835 444.743C730.697 441.967 727.864 434.404 721.507 427.851C715.151 421.298 707.677 418.236 704.815 421.013C701.953 423.789 704.786 431.352 711.142 437.905C717.499 444.458 724.972 447.52 727.835 444.743Z" stroke="#153144" stroke-width="6" stroke-miterlimit="10" stroke-linecap="round" stroke-linejoin="round"/>
<path d="M663.757 531.259C668.43 523.417 669.442 515.405 666.017 513.364C662.592 511.322 656.026 516.025 651.353 523.867C646.68 531.709 645.668 539.721 649.093 541.762C652.519 543.803 659.084 539.101 663.757 531.259Z" stroke="#153144" stroke-width="6" stroke-miterlimit="10" stroke-linecap="round" stroke-linejoin="round"/>
<path d="M803.249 638.941C807.237 638.935 810.459 631.53 810.446 622.4C810.433 613.271 807.19 605.875 803.202 605.881C799.215 605.886 795.993 613.291 796.006 622.421C796.019 631.55 799.262 638.946 803.249 638.941Z" stroke="#153144" stroke-width="6" stroke-miterlimit="10" stroke-linecap="round" stroke-linejoin="round"/>
<path d="M786.529 423.356C791.709 415.839 793.247 407.912 789.964 405.649C786.68 403.387 779.819 407.646 774.639 415.163C769.459 422.68 767.922 430.608 771.205 432.871C774.489 435.133 781.349 430.873 786.529 423.356Z" stroke="#153144" stroke-width="6" stroke-miterlimit="10" stroke-linecap="round" stroke-linejoin="round"/>
<path d="M782.004 497.347C786.023 491.515 787.215 485.363 784.666 483.606C782.117 481.85 776.793 485.154 772.774 490.986C768.755 496.818 767.563 502.97 770.112 504.727C772.661 506.483 777.985 503.179 782.004 497.347Z" stroke="#153144" stroke-width="6" stroke-miterlimit="10" stroke-linecap="round" stroke-linejoin="round"/>
<path d="M748.315 482.665L769.69 463.665" stroke="#153144" stroke-width="8" stroke-miterlimit="10" stroke-linecap="round" stroke-linejoin="round"/>
<path d="M748.315 514.965L721.715 494.16" stroke="#153144" stroke-width="8" stroke-miterlimit="10" stroke-linecap="round" stroke-linejoin="round"/>
<path d="M748.315 443.715V709.715" stroke="#153144" stroke-width="8" stroke-miterlimit="10" stroke-linecap="round" stroke-linejoin="round"/>
<path d="M446.215 520.95C446.215 520.95 434.72 536.91 433.295 538.335C431.87 539.76 394.535 545.27 394.535 545.27L390.355 559.235C390.355 559.235 436.715 555.91 440.99 551.635C445.265 547.36 457.14 531.97 457.14 531.97L446.215 520.95Z" fill="white"/>
<path d="M446.215 520.95C446.215 520.95 434.72 536.91 433.295 538.335C431.87 539.76 390.26 545.27 390.26 545.27L386.08 559.235C386.08 559.235 436.62 555.91 440.895 551.635C445.17 547.36 457.045 531.97 457.045 531.97L446.215 520.95Z" stroke="#153144" stroke-width="8" stroke-miterlimit="10" stroke-linecap="round" stroke-linejoin="round"/>
<path d="M534.945 709.715C566.268 709.715 591.66 684.323 591.66 653C591.66 621.677 566.268 596.285 534.945 596.285C503.622 596.285 478.23 621.677 478.23 653C478.23 684.323 503.622 709.715 534.945 709.715Z" fill="white"/>
<path d="M361.95 709.715C393.273 709.715 418.665 684.323 418.665 653C418.665 621.677 393.273 596.285 361.95 596.285C330.627 596.285 305.235 621.677 305.235 653C305.235 684.323 330.627 709.715 361.95 709.715Z" fill="white"/>
<path d="M361.95 709.715C393.273 709.715 418.665 684.323 418.665 653C418.665 621.677 393.273 596.285 361.95 596.285C330.627 596.285 305.235 621.677 305.235 653C305.235 684.323 330.627 709.715 361.95 709.715Z" stroke="#153144" stroke-width="8" stroke-miterlimit="10" stroke-linecap="round" stroke-linejoin="round"/>
<path d="M361.95 690.715C341.145 690.715 324.235 673.805 324.235 653C324.235 632.195 341.145 615.285 361.95 615.285C382.755 615.285 399.665 632.195 399.665 653C399.665 673.805 382.755 690.715 361.95 690.715Z" fill="#90CAF8"/>
<path d="M328.795 670.86C325.945 665.54 324.33 659.46 324.33 653C324.33 640.365 330.505 629.25 340.1 622.41" stroke="#153144" stroke-width="6" stroke-miterlimit="10" stroke-linecap="round" stroke-linejoin="round"/>
<path d="M383.895 635.33C387.79 640.175 390.07 646.255 390.07 653C390.07 656.515 389.405 659.84 388.265 662.88" stroke="#153144" stroke-width="6" stroke-miterlimit="10" stroke-linecap="round" stroke-linejoin="round"/>
<path d="M361.95 653L390.26 559.235" stroke="#153144" stroke-width="8" stroke-miterlimit="10" stroke-linecap="round" stroke-linejoin="round"/>
<path d="M361.95 659.65C358.34 659.65 355.3 656.61 355.3 653C355.3 649.39 358.34 646.35 361.95 646.35C365.56 646.35 368.6 649.39 368.6 653C368.6 656.61 365.56 659.65 361.95 659.65Z" fill="#6563FF"/>
<path d="M361.95 659.65C358.34 659.65 355.3 656.61 355.3 653C355.3 649.39 358.34 646.35 361.95 646.35C365.56 646.35 368.6 649.39 368.6 653C368.6 656.61 365.56 659.65 361.95 659.65Z" stroke="#153144" stroke-width="8" stroke-miterlimit="10" stroke-linecap="round" stroke-linejoin="round"/>
<path d="M534.945 709.715C566.268 709.715 591.66 684.323 591.66 653C591.66 621.677 566.268 596.285 534.945 596.285C503.622 596.285 478.23 621.677 478.23 653C478.23 684.323 503.622 709.715 534.945 709.715Z" stroke="#153144" stroke-width="8" stroke-miterlimit="10" stroke-linecap="round" stroke-linejoin="round"/>
<path d="M534.945 690.715C514.14 690.715 497.23 673.805 497.23 653C497.23 632.195 514.14 615.285 534.945 615.285C555.75 615.285 572.66 632.195 572.66 653C572.66 673.805 555.75 690.715 534.945 690.715Z" fill="#90CAF8"/>
<path d="M541.975 615.95C559.455 619.275 572.66 634.57 572.66 653" stroke="#153144" stroke-width="6" stroke-miterlimit="10" stroke-linecap="round" stroke-linejoin="round"/>
<path d="M529.72 680.74C522.595 679.41 516.42 675.325 512.24 669.72" stroke="#153144" stroke-width="6" stroke-miterlimit="10" stroke-linecap="round" stroke-linejoin="round"/>
<path d="M389.215 576.81L441.37 654.9L535.325 654.805L483.17 576.715L389.215 576.81Z" stroke="#153144" stroke-width="8" stroke-miterlimit="10" stroke-linecap="round" stroke-linejoin="round"/>
<path d="M445.17 508.885C458.916 508.885 470.06 497.741 470.06 483.995C470.06 470.249 458.916 459.105 445.17 459.105C431.424 459.105 420.28 470.249 420.28 483.995C420.28 497.741 431.424 508.885 445.17 508.885Z" fill="white"/>
<path d="M457.235 473.83L438.805 508.885" stroke="#153144" stroke-width="8" stroke-miterlimit="10" stroke-linecap="round" stroke-linejoin="round"/>
<path d="M445.17 508.885C458.916 508.885 470.06 497.741 470.06 483.995C470.06 470.249 458.916 459.105 445.17 459.105C431.424 459.105 420.28 470.249 420.28 483.995C420.28 497.741 431.424 508.885 445.17 508.885Z" stroke="#153144" stroke-width="8" stroke-miterlimit="10" stroke-linecap="round" stroke-linejoin="round"/>
<path d="M476.995 480.195C478.99 471.075 477.755 462.715 472.91 456.92C462.555 444.57 438.615 447.99 418.475 464.9C412.965 469.555 408.31 474.685 404.51 480.1H476.995V480.195Z" fill="#0066AA"/>
<path d="M472.91 456.92C466.545 449.32 455.145 447.705 442.605 451.505C449.35 451.885 455.05 454.26 458.85 458.82C463.315 464.235 464.74 471.74 463.315 480.195H476.995C478.895 470.98 477.755 462.715 472.91 456.92Z" fill="#0077DD"/>
<path d="M476.995 480.195C478.99 471.075 477.755 462.715 472.91 456.92C462.555 444.57 438.615 447.99 418.475 464.9C412.965 469.555 408.31 474.685 404.51 480.1H476.995V480.195Z" stroke="#153144" stroke-width="8" stroke-miterlimit="10" stroke-linecap="round" stroke-linejoin="round"/>
<path d="M455.145 590.015C455.145 590.015 447.925 595.905 445.265 598.565C442.605 601.225 443.84 651.1 443.84 651.1H457.33C457.33 651.1 461.89 611.39 463.695 609.585C465.405 607.875 475.19 601.32 475.19 601.32L455.145 590.015Z" fill="white"/>
<path d="M455.145 590.015C455.145 590.015 447.925 595.905 445.265 598.565C442.605 601.225 443.84 651.1 443.84 651.1H457.33C457.33 651.1 461.89 611.39 463.695 609.585C465.405 607.875 475.19 601.32 475.19 601.32L455.145 590.015Z" stroke="#153144" stroke-width="8" stroke-miterlimit="10" stroke-linecap="round" stroke-linejoin="round"/>
<path d="M443.84 520.665L456.38 536.815L462.27 529.88L482.885 564.745L529.72 567.595C529.72 567.595 499.415 518.48 484.88 507.745C470.345 497.01 462.65 501.95 459.325 505.18C456.095 508.41 443.84 520.665 443.84 520.665Z" fill="#90CAF8"/>
<path d="M499.89 565.695C497.23 537.195 480.89 513.73 459.135 505.275C455.62 508.79 443.84 520.57 443.84 520.57L456.38 536.72L462.27 529.785L482.885 564.65L499.89 565.695Z" fill="#74BAE8"/>
<path d="M443.84 520.665L456.38 536.815L462.27 529.88L482.885 567.595H529.72C529.72 567.595 499.415 518.48 484.88 507.745C470.345 497.01 462.65 501.95 459.325 505.18C456.095 508.41 443.84 520.665 443.84 520.665Z" stroke="#153144" stroke-width="8" stroke-miterlimit="10" stroke-linecap="round" stroke-linejoin="round"/>
<path d="M463.125 666.49H431.205V661.265C431.205 656.61 434.815 652.81 439.375 652.525L463.03 651.195V666.49H463.125Z" fill="#153144"/>
<path d="M463.125 666.49H431.205V661.265C431.205 656.61 434.815 652.81 439.375 652.525L463.03 651.195V666.49H463.125Z" stroke="#153144" stroke-width="8" stroke-miterlimit="10" stroke-linecap="round" stroke-linejoin="round"/>
<path d="M453.055 588.4L475.095 605.215C475.095 605.215 522.5 589.065 529.72 567.5C493.62 567.5 482.885 567.5 482.885 567.5L453.055 588.4Z" fill="#0066AA"/>
<path opacity="0.63" d="M499.035 567.5C487.065 567.5 482.885 567.5 482.885 567.5L453.055 588.4L458.375 592.485C459.515 592.295 460.655 592.105 461.89 591.915C480.51 588.115 495.045 578.14 499.035 567.5Z" fill="#0077DD"/>
<path d="M453.055 588.4L475.095 605.215C475.095 605.215 522.5 589.065 529.72 567.5C493.62 567.5 482.885 567.5 482.885 567.5L453.055 588.4Z" stroke="#153144" stroke-width="8" stroke-miterlimit="10" stroke-linecap="round" stroke-linejoin="round"/>
<path d="M535.325 661.55C531.715 661.55 528.675 658.51 528.675 654.9C528.675 651.29 531.715 648.25 535.325 648.25C538.935 648.25 541.975 651.29 541.975 654.9C541.975 658.51 538.935 661.55 535.325 661.55Z" fill="#6563FF"/>
<path d="M535.325 661.55C531.715 661.55 528.675 658.51 528.675 654.9C528.675 651.29 531.715 648.25 535.325 648.25C538.935 648.25 541.975 651.29 541.975 654.9C541.975 658.51 538.935 661.55 535.325 661.55Z" stroke="#153144" stroke-width="8" stroke-miterlimit="10" stroke-linecap="round" stroke-linejoin="round"/>
<path d="M522.31 458.44H529.72" stroke="#153144" stroke-width="8" stroke-miterlimit="10" stroke-linecap="round" stroke-linejoin="round"/>
<path d="M463.125 458.44H509.865" stroke="#153144" stroke-width="8" stroke-miterlimit="10" stroke-linecap="round" stroke-linejoin="round"/>
<path d="M559.265 668.39H628.615" stroke="#153144" stroke-width="8" stroke-miterlimit="10" stroke-linecap="round" stroke-linejoin="round"/>
<path d="M641.535 631.815H648.185" stroke="#153144" stroke-width="8" stroke-miterlimit="10" stroke-linecap="round" stroke-linejoin="round"/>
<path d="M602.49 631.815H628.615" stroke="#153144" stroke-width="8" stroke-miterlimit="10" stroke-linecap="round" stroke-linejoin="round"/>
<path d="M523.735 511.45H560.12" stroke="#153144" stroke-width="8" stroke-miterlimit="10" stroke-linecap="round" stroke-linejoin="round"/>
<path d="M328.795 592.485H296.97" stroke="#153144" stroke-width="8" stroke-miterlimit="10" stroke-linecap="round" stroke-linejoin="round"/>
<path d="M355.965 576.715H340.005" stroke="#153144" stroke-width="8" stroke-miterlimit="10" stroke-linecap="round" stroke-linejoin="round"/>
</g>
<defs>
<clipPath id="clip0_38_3">
<rect width="888" height="1024" fill="white"/>
</clipPath>
</defs>
</svg>
