<svg width="70" height="70" viewBox="0 0 70 70" fill="none" xmlns="http://www.w3.org/2000/svg">
<path d="M35 5.83334C29.3431 5.84409 23.8113 7.49967 19.0786 10.5984C14.3458 13.6972 10.6164 18.1053 8.34441 23.286C6.07246 28.4667 5.3561 34.1962 6.28258 39.7768C7.20906 45.3574 9.73839 50.5481 13.5625 54.7167C16.2937 57.6772 19.6086 60.04 23.2982 61.656C26.9877 63.2721 30.972 64.1064 35 64.1064C39.028 64.1064 43.0123 63.2721 46.7018 61.656C50.3914 60.04 53.7063 57.6772 56.4375 54.7167C60.2616 50.5481 62.7909 45.3574 63.7174 39.7768C64.6439 34.1962 63.9275 28.4667 61.6556 23.286C59.3836 18.1053 55.6542 13.6972 50.9214 10.5984C46.1887 7.49967 40.6569 5.84409 35 5.83334ZM35 58.3333C28.958 58.3242 23.1552 55.9716 18.8125 51.7708C20.131 48.5612 22.3738 45.8159 25.2562 43.8838C28.1385 41.9518 31.5301 40.9203 35 40.9203C38.4699 40.9203 41.8615 41.9518 44.7438 43.8838C47.6262 45.8159 49.869 48.5612 51.1875 51.7708C46.8448 55.9716 41.042 58.3242 35 58.3333ZM29.1667 29.1667C29.1667 28.013 29.5088 26.8851 30.1498 25.9258C30.7907 24.9666 31.7018 24.2189 32.7677 23.7774C33.8336 23.3359 35.0065 23.2203 36.138 23.4454C37.2696 23.6705 38.309 24.2261 39.1248 25.0419C39.9406 25.8577 40.4962 26.8971 40.7212 28.0286C40.9463 29.1602 40.8308 30.3331 40.3893 31.399C39.9478 32.4649 39.2001 33.3759 38.2408 34.0169C37.2815 34.6579 36.1537 35 35 35C33.4529 35 31.9692 34.3854 30.8752 33.2915C29.7812 32.1975 29.1667 30.7138 29.1667 29.1667ZM55.1542 46.6667C52.5482 42.2093 48.5374 38.7422 43.75 36.8083C45.2351 35.1244 46.2027 33.0478 46.5368 30.8275C46.8709 28.6073 46.5572 26.3378 45.6334 24.2915C44.7097 22.2451 43.215 20.5087 41.3289 19.2907C39.4428 18.0728 37.2452 17.4249 35 17.4249C32.7548 17.4249 30.5572 18.0728 28.6711 19.2907C26.785 20.5087 25.2903 22.2451 24.3666 24.2915C23.4428 26.3378 23.1291 28.6073 23.4632 30.8275C23.7973 33.0478 24.7649 35.1244 26.25 36.8083C21.4626 38.7422 17.4518 42.2093 14.8458 46.6667C12.769 43.1291 11.6717 39.1022 11.6667 35C11.6667 28.8116 14.125 22.8767 18.5008 18.5009C22.8767 14.125 28.8116 11.6667 35 11.6667C41.1884 11.6667 47.1233 14.125 51.4992 18.5009C55.875 22.8767 58.3333 28.8116 58.3333 35C58.3283 39.1022 57.231 43.1291 55.1542 46.6667Z" fill="#6563FF"/>
</svg>
